<?xml version="1.0" encoding="utf-8"?><!-- Uploaded to: SVG Repo, www.svgrepo.com, Generator: SVG Repo Mixer Tools -->
<svg fill="#000000" width="800px" height="800px" viewBox="0 0 24 24" id="down-octagon" data-name="Flat Color" xmlns="http://www.w3.org/2000/svg" class="icon flat-color"><path id="primary" d="M21.71,7.57,16.43,2.29a1,1,0,0,0-.7-.29H8.27a1,1,0,0,0-.7.29L2.29,7.57a1,1,0,0,0-.29.7v7.46a1,1,0,0,0,.29.7l5.28,5.28a1,1,0,0,0,.7.29h7.46a1,1,0,0,0,.7-.29l5.28-5.28a1,1,0,0,0,.29-.7V8.27A1,1,0,0,0,21.71,7.57Z" style="fill: rgb(0, 0, 0);"></path><path id="secondary" d="M15.21,12.79a1,1,0,0,0-1.42,0l-.79.8V8a1,1,0,0,0-2,0v5.59l-.79-.8a1,1,0,0,0-1.42,1.42l2.5,2.5a1,1,0,0,0,1.42,0l2.5-2.5A1,1,0,0,0,15.21,12.79Z" style="fill: rgb(44, 169, 188);"></path></svg>